<?xml version="1.0" encoding="UTF-8"?>
<svg width="581px" height="280px" viewBox="0 0 581 280" version="1.1" xmlns="http://www.w3.org/2000/svg" xmlns:xlink="http://www.w3.org/1999/xlink">
    <!-- Generator: Sketch 43.2 (39069) - http://www.bohemiancoding.com/sketch -->
    <title>Untitled 3</title>
    <desc>Created with Sketch.</desc>
    <defs></defs>
    <g id="Page-1" stroke="none" stroke-width="1" fill="none" fill-rule="evenodd">
        <rect id="Rectangle" fill="#FFFFFF" x="1" y="1" width="578" height="278" rx="40"></rect>
        <g id="kindle" transform="translate(60.000000, 104.000000)">
            <path d="M158.711979,79.6740913 C143.868594,90.5997284 122.350417,96.4084159 103.821042,96.4084159 C77.8514062,96.4084159 54.4656771,86.8339976 36.7700521,70.8977404 C35.3804688,69.6456827 36.6203125,67.9360505 38.2902083,68.9061562 C57.3826042,79.9859111 80.9947396,86.6595697 105.380729,86.6595697 C121.830521,86.6595697 139.914271,83.2534471 156.554531,76.2154014 C159.062969,75.1556923 161.167708,77.8664928 158.711979,79.6740913 Z" id="Shape" fill="#FF9900"></path>
            <path d="M164.888437,72.6432139 C162.98974,70.2191442 152.34026,71.4939014 147.554583,72.0661683 C146.105104,72.2405962 145.879896,70.9765913 147.185625,70.0614423 C155.682448,64.1105841 169.603437,65.8285793 171.221823,67.8213582 C172.852187,69.8320577 170.794167,83.7516418 162.831615,90.394238 C161.607344,91.4157163 160.441771,90.8709279 160.984427,89.5220986 C162.777708,85.0586563 166.788333,75.0684784 164.888437,72.6432139 Z" id="Shape" fill="#FF9900"></path>
            <path d="M147.892396,28.0183486 L147.892396,22.23475 C147.897187,21.3542476 148.560833,20.7676442 149.363437,20.7700337 L175.35224,20.7676442 C176.182396,20.7676442 176.849635,21.3697788 176.849635,22.226387 L176.849635,27.1868293 C176.842448,28.0195433 176.139271,29.1043413 174.893437,30.8271154 L161.43125,49.996262 C166.42776,49.8791803 171.715365,50.625875 176.255469,53.1718053 C177.27849,53.7440721 177.552812,54.593512 177.634271,55.4274207 L177.634271,61.5993005 C177.634271,62.4487404 176.699896,63.4331827 175.718802,62.9194567 C167.72151,58.7415505 157.105573,58.2851707 148.260156,62.972024 C147.356927,63.4511034 146.411771,62.4821923 146.411771,61.630363 L146.411771,55.765524 C146.411771,54.8264808 146.42974,53.2207885 147.379687,51.7907188 L162.976562,29.4747019 L149.396979,29.4735072 C148.563229,29.4747019 147.897187,28.8845144 147.892396,28.0183486 Z" id="Shape" fill="#000000" fill-rule="nonzero"></path>
            <path d="M53.0928646,64.1368678 L45.1854167,64.1368678 C44.433125,64.0866899 43.8329687,63.5239808 43.7706771,62.8035697 L43.7766667,22.3339111 C43.7766667,21.5238966 44.4582812,20.8775577 45.3016146,20.8775577 L52.6652083,20.8751683 C53.4354687,20.9145937 54.0535937,21.4952236 54.1015104,22.23475 L54.1015104,27.5177644 L54.2500521,27.5177644 C56.1691146,22.4079832 59.785625,20.0233389 64.6551562,20.0233389 C69.6001562,20.0233389 72.7003646,22.4091779 74.9141146,27.5177644 C76.834375,22.4079832 81.1876042,20.0233389 85.8379167,20.0233389 C89.1585417,20.0233389 92.77625,21.3865048 94.99,24.4521346 C97.4984375,27.8594519 96.9845312,32.7971947 96.9845312,37.1411659 L96.9773437,62.6817091 C96.9773437,63.4893341 96.2957292,64.1380625 95.4523958,64.1380625 L87.5557292,64.1380625 C86.7615104,64.0866899 86.1373958,63.4606611 86.1373958,62.6840986 L86.135,41.2294688 C86.135,39.5281995 86.2823437,35.2690529 85.9121875,33.6514135 C85.3216146,30.9250817 83.5510937,30.1580769 81.2642708,30.1580769 C79.3440104,30.1580769 77.3506771,31.4352236 76.5384896,33.479375 C75.7275,35.5235264 75.8005729,38.929649 75.8005729,41.2294688 L75.8005729,62.6829038 C75.8005729,63.4905288 75.1189583,64.1392572 74.2768229,64.1392572 L66.3789583,64.1392572 C65.5847396,64.0878846 64.9594271,63.4618558 64.9594271,62.6852933 L64.9522396,41.2306635 C64.9522396,36.7170433 65.6901562,30.0756418 60.0827083,30.0756418 C54.3985937,30.0756418 54.6202083,36.5473942 54.6202083,41.2306635 L54.6178125,62.6840986 C54.6190104,63.4893341 53.935,64.1368678 53.0928646,64.1368678 Z" id="Shape" fill="#000000" fill-rule="nonzero"></path>
            <path d="M199.221927,20.0233389 C210.956719,20.0233389 217.302083,30.0744471 217.302083,42.8471082 C217.302083,55.1944519 210.291875,64.9898918 199.221927,64.9898918 C187.70875,64.9898918 181.434062,54.9387837 181.434062,42.4205962 C181.434062,29.8163894 187.781823,20.0233389 199.221927,20.0233389 Z M199.293802,28.2847692 C193.463542,28.2847692 193.095781,36.2033173 193.095781,41.1434495 C193.095781,46.082387 193.022708,56.6424423 199.221927,56.6424423 C205.349271,56.6424423 205.64276,48.1265385 205.64276,42.9331274 C205.64276,39.5270048 205.495417,35.4387019 204.460417,32.2010337 C203.575156,29.3910721 201.80224,28.2847692 199.293802,28.2847692 Z" id="Shape" fill="#000000" fill-rule="nonzero"></path>
            <path d="M232.521615,64.1368678 L224.644115,64.1368678 C223.852292,64.0854952 223.224583,63.4594663 223.224583,62.6829038 L223.211406,22.1977139 C223.27849,21.4569928 223.93375,20.8775577 224.730365,20.8775577 L232.06401,20.8751683 C232.755208,20.9110096 233.324219,21.3805313 233.469167,22.0077548 L233.469167,28.19875 L233.618906,28.19875 C235.833854,22.661262 238.931667,20.0221442 244.392969,20.0221442 C247.935208,20.0221442 251.405573,21.2992909 253.618125,24.7926274 C255.684531,28.0279063 255.684531,33.4781803 255.684531,37.3956394 L255.684531,62.8621106 C255.598281,63.5789375 254.951406,64.1356731 254.169167,64.1356731 L246.244948,64.1356731 C245.513021,64.0890793 244.922448,63.5526538 244.837396,62.8621106 L244.837396,40.888976 C244.837396,36.4601803 245.354896,29.9872332 239.892396,29.9872332 C237.972135,29.9872332 236.201615,31.2643798 235.316354,33.222512 C234.208281,35.6931755 234.05974,38.1614495 234.05974,40.888976 L234.05974,62.6805144 C234.04776,63.4893341 233.364948,64.1368678 232.521615,64.1368678 Z" id="Shape" fill="#000000" fill-rule="nonzero"></path>
            <path d="M135.145365,64.036512 C134.623073,64.5060337 133.868385,64.5359014 133.277812,64.2193029 C130.653177,62.0437332 130.182396,61.0377861 128.746094,58.9661562 C124.406042,63.3746418 121.333385,64.6983822 115.710365,64.6983822 C109.05474,64.6983822 103.876146,60.6005216 103.876146,52.4071899 C103.876146,46.0071202 107.3525,41.6547861 112.308281,39.5198365 C116.596823,37.64175 122.588802,37.3012572 127.175625,36.7875312 L127.175625,35.7636635 C127.175625,33.8855769 127.322969,31.6681923 126.2125,30.045774 C125.250573,28.5941995 123.402187,27.9968437 121.774219,27.9968437 C118.759062,27.9968437 116.079323,29.5380216 115.419271,32.7314856 C115.282708,33.4423389 114.762812,34.146024 114.046458,34.1818654 L106.383385,33.3539303 C105.735312,33.2081755 105.016562,32.6908654 105.20224,31.7052284 C106.965573,22.4342668 115.360573,19.633863 122.88349,19.633863 C126.731198,19.633863 131.758854,20.6553413 134.791979,23.5596851 C138.639688,27.1438197 138.268333,31.9250553 138.268333,37.1316082 L138.268333,49.4144375 C138.268333,53.110875 139.807656,54.7309038 141.252344,56.7212933 C141.757865,57.4405096 141.870469,58.2911442 141.22599,58.8168173 C139.611198,60.1680361 136.742188,62.6530361 135.163333,64.0544327 L135.145365,64.036512 Z M127.175625,44.8100192 L127.176823,44.8100192 L127.176823,43.1039712 C121.455573,43.1039712 115.415677,44.3249663 115.415677,51.0404399 C115.415677,54.4537308 117.19099,56.759524 120.222917,56.759524 C122.44026,56.759524 124.438385,55.392774 125.695,53.1753894 C127.248698,50.4430841 127.175625,47.884012 127.175625,44.8100192 Z" id="Shape" fill="#000000" fill-rule="nonzero"></path>
            <path d="M31.4992188,64.036512 C30.9769271,64.5060337 30.2210417,64.5359014 29.6316667,64.2193029 C27.0046354,62.0437332 26.5338542,61.0377861 25.0999479,58.9661562 C20.7586979,63.3746418 17.6860417,64.6983822 12.0654167,64.6983822 C5.40859375,64.6983822 0.231197917,60.6005216 0.231197917,52.4071899 C0.231197917,46.0071202 3.70635417,41.6547861 8.66333333,39.5198365 C12.9530729,37.64175 18.9450521,37.3012572 23.5282813,36.7875312 L23.5282813,35.7636635 C23.5282813,33.8855769 23.6780208,31.6681923 22.56875,30.045774 C21.605625,28.5941995 19.7572396,27.9968437 18.1304688,27.9968437 C15.1141146,27.9968437 12.4319792,29.5380216 11.7755208,32.7314856 C11.6377604,33.4423389 11.1190625,34.146024 10.4015104,34.1818654 L2.73963542,33.3539303 C2.09036458,33.2069808 1.37041667,32.6908654 1.55729167,31.7040337 C3.31822917,22.4330721 11.7132292,19.6326683 19.2385417,19.6326683 C23.0850521,19.6326683 28.1151042,20.6541466 31.1470313,23.5584904 C34.9923438,27.142625 34.6233854,31.9238606 34.6233854,37.1304135 L34.6233854,49.4132428 C34.6233854,53.1096803 36.1615104,54.7297091 37.6061979,56.7200986 C38.1105208,57.4393149 38.2255208,58.2899495 37.5810417,58.8156226 C35.9650521,60.1668413 33.0948438,62.6518413 31.5171875,64.053238 L31.4992188,64.036512 Z M23.5270833,44.8100192 L23.5270833,43.1039712 C17.8094271,43.1039712 11.7683333,44.3249663 11.7683333,51.0404399 C11.7683333,54.4537308 13.5436458,56.759524 16.5755729,56.759524 C18.7941146,56.759524 20.7934375,55.392774 22.0488542,53.1753894 C23.6013542,50.4430841 23.5270833,47.884012 23.5270833,44.8100192 Z" id="Shape" fill="#000000" fill-rule="nonzero"></path>
            <polygon id="Shape" fill="#FF9900" fill-rule="nonzero" points="292.325208 64.1535938 273.903646 41.8793918 273.813802 41.8793918 273.813802 64.1535938 267.189323 64.1535938 267.189323 0.0477620192 273.813802 0.0477620192 273.813802 36.4470385 273.903646 36.4470385 289.694583 21.3255745 298.314792 21.3255745 279.439219 38.8006202 300.765729 64.1535938"></polygon>
            <path d="M308.476719,12.3616538 C305.935938,12.3616538 303.849167,10.2792716 303.849167,7.74409375 C303.849167,5.20772115 305.935938,3.12653365 308.476719,3.12653365 C311.0175,3.12653365 313.104271,5.20772115 313.104271,7.74409375 C313.104271,10.2792716 311.0175,12.3616538 308.476719,12.3616538 Z M305.21,64.1535938 L305.21,21.3255745 L311.833281,21.3255745 L311.833281,64.1535938 L305.21,64.1535938 Z" id="Shape" fill="#FF9900" fill-rule="nonzero"></path>
            <path d="M349.063333,64.1535937 L349.063333,37.8054255 C349.063333,32.4626755 348.15651,26.4867284 341.621875,26.4867284 C336.358229,26.4867284 331.549792,30.1986971 328.283073,33.0074639 L328.283073,64.1547885 L321.658594,64.1547885 L321.658594,21.3255745 L327.103125,21.3255745 L328.011146,26.4867284 C332.728542,22.8655577 337.35849,20.2395817 343.348073,20.2395817 C349.517344,20.2395817 355.68901,24.6755457 355.68901,35.3610457 L355.68901,64.1547885 L349.063333,64.1547885 L349.063333,64.1535937 Z" id="Shape" fill="#FF9900" fill-rule="nonzero"></path>
            <path d="M384.906198,65.0591851 C372.928229,65.0591851 362.854948,58.0880433 362.854948,43.3285769 C362.854948,30.0194904 372.473021,20.2395817 384.996042,20.2395817 C388.080677,20.2395817 390.260885,20.5107813 391.98349,20.9635769 L391.98349,0.0477620192 L398.607969,0.0477620192 L398.607969,61.9804135 C395.977344,63.5203966 390.986823,65.0591851 384.906198,65.0591851 Z M391.984687,27.1211202 C390.262083,26.4867284 388.717969,26.0351274 385.361406,26.0351274 C376.920885,26.0351274 369.570469,32.6454663 369.570469,42.876976 C369.570469,52.5648918 374.925156,59.4464303 386.086146,59.4464303 C388.26276,59.4464303 390.623854,58.9936346 391.984687,58.3604375 L391.984687,27.1211202 L391.984687,27.1211202 Z" id="Shape" fill="#FF9900" fill-rule="nonzero"></path>
            <path d="M415.849583,65.0591851 C410.585938,65.0591851 408.318281,61.7092139 408.318281,57.1812572 L408.318281,0.0477620192 L414.94276,0.0477620192 L414.94276,54.1932837 C414.94276,58.26725 415.940625,59.083238 418.481406,59.083238 C418.935417,59.083238 419.661354,59.083238 420.75026,58.8120385 L421.568438,63.6111947 C419.570313,64.6063894 418.027396,65.0591851 415.849583,65.0591851 Z" id="Shape" fill="#FF9900" fill-rule="nonzero"></path>
            <path d="M432.273021,43.8721707 C432.273021,52.0212981 436.991615,59.3532428 446.247917,59.3532428 C450.150729,59.3532428 454.143385,57.815649 456.684167,56.1860625 L458.770938,60.893226 C455.59526,63.0664062 450.150729,65.0579904 445.430937,65.0579904 C431.729167,65.0579904 425.193333,54.1024856 425.193333,41.8781971 C425.193333,29.4735072 432.271823,20.238387 442.617031,20.238387 C453.688177,20.238387 459.767604,29.0219062 459.767604,42.3321875 L459.767604,43.8721707 L432.273021,43.8721707 Z M442.708073,25.8535312 C436.356719,25.8535312 432.362865,31.4674808 432.362865,38.2582212 L452.600469,38.2582212 C452.600469,32.282274 449.243906,25.8535312 442.708073,25.8535312 Z" id="Shape" fill="#FF9900" fill-rule="nonzero"></path>
        </g>
        <text id="Available-at" font-family="Helvetica" font-size="54" font-weight="normal" letter-spacing="-1" fill="#222222">
            <tspan x="60.3867188" y="82">Available a</tspan>
            <tspan x="312.610352" y="82">t</tspan>
        </text>
    </g>
</svg>